<?xml version="1.0" standalone="no"?><!-- Generator: Gravit.io --><svg xmlns="http://www.w3.org/2000/svg" xmlns:xlink="http://www.w3.org/1999/xlink" style="isolation:isolate" viewBox="0 0 412.869 50.533" width="412.869" height="50.533"><defs><clipPath id="_clipPath_sxtftj7k5G49GZkm5cfpEY1XpwZ4Hug5"><rect width="412.869" height="50.533"/></clipPath></defs><g clip-path="url(#_clipPath_sxtftj7k5G49GZkm5cfpEY1XpwZ4Hug5)"><g><path d=" M 14.735 49.067 L 18.001 39.666 L 36.135 39.666 L 39.335 49.067 L 53.933 49.067 L 35.601 1.466 L 18.801 1.466 L 0 49.067 L 14.735 49.067 Z  M 27.135 13.333 L 27.268 13.333 L 32.868 30.466 L 21.267 30.466 L 27.135 13.333 Z " fill-rule="evenodd" fill="rgb(48,104,187)"/><path d=" M 52.849 49.067 L 73.316 49.067 C 91.649 49.067 101.451 41.734 101.451 25.267 C 101.451 8.799 91.649 1.466 73.316 1.466 L 52.849 1.466 L 52.849 49.067 Z  M 66.451 11.2 L 74.116 11.2 C 80.984 11.2 87.049 14.266 87.049 25.267 C 87.049 33.999 83.183 39.333 74.116 39.333 L 66.451 39.333 L 66.451 11.2 Z " fill-rule="evenodd" fill="rgb(48,104,187)"/><path d=" M 117.165 25.267 C 117.165 14.733 121.899 9.199 129.367 9.199 C 136.765 9.199 141.5 14.733 141.5 25.267 C 141.5 35.799 136.765 41.333 129.367 41.333 C 121.899 41.333 117.165 35.799 117.165 25.267 L 117.165 25.267 Z  M 156.432 25.267 C 156.432 8.533 144.833 0 129.367 0 C 113.833 0 102.232 8.533 102.232 25.267 C 102.232 41.999 113.833 50.533 129.367 50.533 C 144.833 50.533 156.432 41.999 156.432 25.267" fill-rule="evenodd" fill="rgb(70,67,68)"/><path d=" M 170.692 11.2 L 178.825 11.2 C 183.825 11.2 186.227 13.532 186.227 17.466 C 186.227 21.599 183.825 23.933 178.825 23.933 L 170.692 23.933 L 170.692 11.2 Z  M 157.092 49.067 L 170.692 49.067 L 170.692 33.666 L 179.425 33.666 C 194.624 33.666 200.227 27.466 200.227 17.466 C 200.227 7.666 194.624 1.466 179.425 1.466 L 157.092 1.466 L 157.092 49.067" fill-rule="evenodd" fill="rgb(70,67,68)"/><path d=" M 226.597 49.067 L 226.597 11.733 L 241.064 11.733 L 241.064 1.466 L 198.532 1.466 L 198.532 11.733 L 212.999 11.733 L 212.999 49.067 L 226.597 49.067 Z " fill-rule="evenodd" fill="rgb(70,67,68)"/><path d=" M 242.065 49.067 L 255.666 49.067 L 255.666 1.466 L 242.065 1.466 L 242.065 49.067 Z " fill-rule="evenodd" fill="rgb(70,67,68)"/><path d=" M 306.537 17.066 C 305.337 5.799 295.536 0 283.872 0 C 268.339 0 256.736 8.533 256.736 25.267 C 256.736 41.999 268.339 50.533 283.872 50.533 C 294.871 50.533 304.869 45.734 306.869 32.066 L 292.736 32.066 C 292.137 37.599 289.069 41.333 282.869 41.333 C 276.403 41.333 271.671 35.799 271.671 25.267 C 271.671 14.733 276.403 9.199 282.869 9.199 C 288.604 9.199 292.005 12.399 292.604 17.066 L 306.537 17.066" fill-rule="evenodd" fill="rgb(70,67,68)"/><path d=" M 308.003 1.466 L 308.003 33.601 C 308.003 43.734 313.336 50.333 330.736 50.533 C 348.137 50.333 353.536 43.734 353.536 33.601 L 353.536 1.466 L 339.937 1.466 L 339.871 29.799 C 339.871 38.401 337.736 41.266 330.736 41.333 C 323.736 41.266 321.604 38.401 321.604 29.799 L 321.604 1.466 L 308.003 1.466 Z " fill-rule="evenodd" fill="rgb(48,104,187)"/><path d=" M 367.269 49.067 L 367.269 14.799 L 367.403 14.799 L 377.004 49.067 L 391.003 49.067 L 400.603 14.799 L 400.736 14.799 L 400.736 49.067 L 412.869 49.067 L 412.869 1.466 L 392.869 1.466 L 384.069 33.066 L 383.936 33.066 L 374.869 1.466 L 355.136 1.466 L 355.136 49.067 L 367.269 49.067 Z " fill-rule="evenodd" fill="rgb(48,104,187)"/></g></g></svg>